<svg width="44" height="44" viewBox="0 0 44 44" fill="none" xmlns="http://www.w3.org/2000/svg">
<path d="M33.5 41H6C3.23858 41 1 38.7614 1 36V6C1 3.23858 3.23858 1 6 1H36C38.7614 1 41 3.23858 41 6V33.2414" stroke="#3E6F8D"/>
<rect x="1" y="8" width="40" height="1" fill="#3E6F8D"/>
<path d="M39 4.5C39 5.32843 38.3284 6 37.5 6C36.6716 6 36 5.32843 36 4.5C36 3.67157 36.6716 3 37.5 3C38.3284 3 39 3.67157 39 4.5ZM36.3 4.5C36.3 5.16274 36.8373 5.7 37.5 5.7C38.1627 5.7 38.7 5.16274 38.7 4.5C38.7 3.83726 38.1627 3.3 37.5 3.3C36.8373 3.3 36.3 3.83726 36.3 4.5Z" fill="#3E6F8D"/>
<path d="M35 4.5C35 5.32843 34.3284 6 33.5 6C32.6716 6 32 5.32843 32 4.5C32 3.67157 32.6716 3 33.5 3C34.3284 3 35 3.67157 35 4.5ZM32.3 4.5C32.3 5.16274 32.8373 5.7 33.5 5.7C34.1627 5.7 34.7 5.16274 34.7 4.5C34.7 3.83726 34.1627 3.3 33.5 3.3C32.8373 3.3 32.3 3.83726 32.3 4.5Z" fill="#3E6F8D"/>
<path d="M31 4.5C31 5.32843 30.3284 6 29.5 6C28.6716 6 28 5.32843 28 4.5C28 3.67157 28.6716 3 29.5 3C30.3284 3 31 3.67157 31 4.5ZM28.3 4.5C28.3 5.16274 28.8373 5.7 29.5 5.7C30.1627 5.7 30.7 5.16274 30.7 4.5C30.7 3.83726 30.1627 3.3 29.5 3.3C28.8373 3.3 28.3 3.83726 28.3 4.5Z" fill="#3E6F8D"/>
<circle cx="38" cy="38" r="5.5" stroke="#3E6F8D"/>
<path d="M37.2185 38.0744L36.7906 36.7906L38.0744 37.2185L37.6464 37.6464L37.2185 38.0744Z" stroke="#3E6F8D"/>
<path d="M37 37.707L37.7071 36.9999L39.801 39.0938L39.0939 39.8009L37 37.707Z" fill="#3E6F8D"/>
<rect x="23.5" y="12.5" width="14" height="14" stroke="#3E6F8D"/>
<rect x="4" y="12" width="15" height="3" fill="#3E6F8D"/>
<rect x="4" y="26" width="15" height="1" fill="#3E6F8D"/>
<rect x="4" y="18" width="15" height="1" fill="#3E6F8D"/>
<rect x="4" y="22" width="15" height="1" fill="#3E6F8D"/>
</svg>
