<svg width="46" height="36" viewBox="0 0 46 36" fill="none" xmlns="http://www.w3.org/2000/svg">
<circle cx="22.5" cy="12.5" r="6" stroke="#3E6F8D"/>
<rect x="14.5" y="25.5" width="16" height="10" fill="#3E6F8D" stroke="#3E6F8D"/>
<path d="M31 25C31 23.6739 30.1045 22.4021 28.5104 21.4645C26.9163 20.5268 24.7543 20 22.5 20C20.2457 20 18.0837 20.5268 16.4896 21.4645C14.8955 22.4021 14 23.6739 14 25L22.5 25H31Z" fill="#3E6F8D"/>
<circle cx="37.5" cy="6.5" r="6" stroke="#3E6F8D"/>
<circle cx="8.5" cy="6.5" r="6" stroke="#3E6F8D"/>
<path d="M29 19H46V30H32C32 30 31.9 24 31.5 23C31.1 22 29 20.5 29 20.5V19Z" fill="#3E6F8D"/>
<path d="M46 19C46 17.6739 45.1045 16.4021 43.5104 15.4645C41.9163 14.5268 39.7543 14 37.5 14C35.2457 14 33.0837 14.5268 31.4896 15.4645C29.8955 16.4021 29 17.6739 29 19L37.5 19H46Z" fill="#3E6F8D"/>
<path d="M0 19H17V20.5C17 20.5 14.6318 21.6617 14 22.5C13.3682 23.3383 13 30 13 30H0V19Z" fill="#3E6F8D"/>
<path d="M17 19C17 17.6739 16.1045 16.4021 14.5104 15.4645C12.9163 14.5268 10.7543 14 8.5 14C6.24566 14 4.08365 14.5268 2.48959 15.4645C0.895534 16.4021 3.40396e-07 17.6739 0 19L8.5 19H17Z" fill="#3E6F8D"/>
</svg>
