<svg width="42" height="42" viewBox="0 0 42 42" fill="none" xmlns="http://www.w3.org/2000/svg">
<rect x="0.5" y="0.5" width="41" height="41" rx="5.5" stroke="#3E6F8D"/>
<rect x="1" y="7" width="40" height="1" fill="#3E6F8D"/>
<circle cx="37" cy="4" r="1" fill="#3E6F8D"/>
<circle cx="34" cy="4" r="1" fill="#3E6F8D"/>
<circle cx="31" cy="4" r="1" fill="#3E6F8D"/>
<rect x="4" y="3" width="12" height="2" fill="#3E6F8D"/>
<path d="M15 15C15 17.7614 12.7614 20 10 20C7.23858 20 5 17.7614 5 15C5 12.2386 7.23858 10 10 10C12.7614 10 15 12.2386 15 15ZM6 15C6 17.2091 7.79086 19 10 19C12.2091 19 14 17.2091 14 15C14 12.7909 12.2091 11 10 11C7.79086 11 6 12.7909 6 15Z" fill="#3E6F8D"/>
<rect x="21" y="11" width="16" height="1" fill="#3E6F8D"/>
<path d="M21 14.5H37V15.5H21V14.5Z" fill="#3E6F8D"/>
<rect x="21" y="18" width="16" height="1" fill="#3E6F8D"/>
<rect x="5.5" y="22.5" width="8" height="4" stroke="#3E6F8D"/>
<rect x="28.5" y="22.5" width="8" height="4" stroke="#3E6F8D"/>
<path d="M17 22.5H25V26.5H17V22.5Z" stroke="#3E6F8D"/>
<rect x="5.5" y="29.5" width="31" height="4" stroke="#3E6F8D"/>
</svg>
